<svg width="200" height="200" viewBox="0 0 200 200" fill="none" xmlns="http://www.w3.org/2000/svg">
<path d="M100 11.1111C82.4194 11.1111 65.2337 16.3244 50.616 26.0916C35.9983 35.8588 24.6052 49.7414 17.8774 65.9837C11.1496 82.226 9.3893 100.099 12.8191 117.341C16.2489 134.584 24.7147 150.423 37.1461 162.854C49.5774 175.285 65.4159 183.751 82.6587 187.181C99.9014 190.611 117.774 188.85 134.016 182.123C150.259 175.395 164.141 164.002 173.908 149.384C183.676 134.766 188.889 117.581 188.889 100C188.889 76.4252 179.524 53.816 162.854 37.1461C146.184 20.4762 123.575 11.1111 100 11.1111ZM100 177.778C84.617 177.778 69.5795 173.216 56.789 164.67C43.9985 156.124 34.0295 143.976 28.1427 129.764C22.2559 115.552 20.7156 99.9137 23.7167 84.8263C26.7178 69.7389 34.1254 55.8802 45.0028 45.0028C55.8802 34.1254 69.7389 26.7178 84.8263 23.7167C99.9137 20.7156 115.552 22.2559 129.764 28.1427C143.976 34.0295 156.124 43.9985 164.67 56.789C173.216 69.5795 177.778 84.617 177.778 100C177.778 120.628 169.583 140.411 154.997 154.997C140.411 169.583 120.628 177.778 100 177.778Z" fill="#85B9EE"/>
<path d="M155.555 67.2222C154.514 66.1875 153.106 65.6067 151.639 65.6067C150.171 65.6067 148.763 66.1875 147.722 67.2222L86.0552 128.611L52.7219 95.2778C51.7052 94.1801 50.2941 93.5312 48.7991 93.4739C47.304 93.4166 45.8474 93.9555 44.7497 94.9722C43.652 95.9889 43.0031 97.4 42.9458 98.895C42.8885 100.39 43.4275 101.847 44.4441 102.944L86.0552 144.444L155.555 75.1111C156.076 74.5947 156.489 73.9802 156.771 73.3032C157.053 72.6262 157.199 71.9001 157.199 71.1667C157.199 70.4333 157.053 69.7071 156.771 69.0301C156.489 68.3531 156.076 67.7387 155.555 67.2222Z" fill="#85B9EE"/>
</svg>

